<?xml version="1.0" encoding="iso-8859-1"?>
<!-- Generator: Adobe Illustrator 18.0.0, SVG Export Plug-In . SVG Version: 6.00 Build 0)  -->
<!DOCTYPE svg PUBLIC "-//W3C//DTD SVG 1.1//EN" "http://www.w3.org/Graphics/SVG/1.1/DTD/svg11.dtd">
<svg version="1.1" id="Capa_1" xmlns="http://www.w3.org/2000/svg" xmlns:xlink="http://www.w3.org/1999/xlink" x="0px" y="0px"
	 viewBox="0 0 490 490" style="enable-background:new 0 0 490 490;" xml:space="preserve">
<path d="M468.154,102.797H350.87V77.051c0-12.15-9.887-22.037-22.038-22.037h-98.954c-12.151,0-22.038,9.887-22.038,22.037v25.746
	h-18.482V77.051c0-12.15-9.887-22.037-22.038-22.037H68.365c-12.151,0-22.038,9.887-22.038,22.037v25.746H21.848
	C9.801,102.797,0,112.598,0,124.643v288.498c0,12.047,9.801,21.846,21.848,21.846h446.307c12.046,0,21.846-9.799,21.846-21.846
	V124.643C490,112.598,480.2,102.797,468.154,102.797z M227.84,77.051c0-1.123,0.914-2.037,2.038-2.037h98.954
	c1.124,0,2.038,0.914,2.038,2.037v25.746H227.84V77.051z M470,413.141c0,1.018-0.828,1.846-1.846,1.846H21.848
	c-1.018,0-1.848-0.828-1.848-1.846V124.643c0-1.018,0.829-1.846,1.848-1.846h34.479c5.522,0,10-4.477,10-10V77.051
	c0-1.123,0.914-2.037,2.038-2.037h98.954c1.124,0,2.038,0.914,2.038,2.037v35.746c0,5.523,4.478,10,10,10h288.797
	c1.017,0,1.846,0.828,1.846,1.846V413.141z"/>
<g>
</g>
<g>
</g>
<g>
</g>
<g>
</g>
<g>
</g>
<g>
</g>
<g>
</g>
<g>
</g>
<g>
</g>
<g>
</g>
<g>
</g>
<g>
</g>
<g>
</g>
<g>
</g>
<g>
</g>
</svg>
