<?xml version="1.0" encoding="iso-8859-1"?>
<!-- Generator: Adobe Illustrator 18.0.0, SVG Export Plug-In . SVG Version: 6.00 Build 0)  -->
<!DOCTYPE svg PUBLIC "-//W3C//DTD SVG 1.1//EN" "http://www.w3.org/Graphics/SVG/1.1/DTD/svg11.dtd">
<svg version="1.1" id="Capa_1" xmlns="http://www.w3.org/2000/svg" xmlns:xlink="http://www.w3.org/1999/xlink" x="0px" y="0px"
	 viewBox="0 0 490 490" style="enable-background:new 0 0 490 490;" xml:space="preserve">
<g>
	<path d="M378.384,109.202c-7.423,0-14.797,0.736-22.043,2.196C352.323,53.479,303.92,7.588,245,7.588
		c-58.923,0-107.327,45.891-111.345,103.81c-7.244-1.459-14.619-2.195-22.043-2.195C50.069,109.202,0,159.27,0,220.813
		c0,61.544,50.069,111.613,111.612,111.613h78.784v28.477H158.87c-3.896,0-7.438,2.263-9.074,5.799
		c-1.638,3.535-1.071,7.7,1.449,10.671l86.13,101.51c1.9,2.239,4.688,3.53,7.625,3.53c2.936,0,5.726-1.291,7.625-3.53l86.128-101.51
		c2.521-2.971,3.087-7.136,1.449-10.671c-1.637-3.536-5.178-5.799-9.074-5.799h-31.525v-28.477h78.781
		c61.545,0,111.616-50.069,111.616-111.613C490,159.27,439.929,109.202,378.384,109.202z M309.528,380.902L245,456.955
		l-64.53-76.053h19.927c5.522,0,10-4.478,10-10V242.789h69.206v128.113c0,5.522,4.477,10,10,10H309.528z M378.384,312.426h-78.781
		v-79.637c0-5.522-4.478-10-10-10h-89.206c-5.523,0-10,4.478-10,10v79.637h-78.784C61.097,312.426,20,271.328,20,220.813
		c0-50.514,41.097-91.61,91.612-91.61c9.784,0,19.464,1.558,28.771,4.63c3.136,1.033,6.577,0.456,9.201-1.547
		c2.624-2.002,3.74-5.626,3.802-13.083c0.417-50.515,41.098-91.614,91.614-91.614c50.514,0,90.49,41.11,91.61,91.614
		c0.172,7.749,1.175,11.077,3.799,13.081c2.623,2.004,6.065,2.582,9.203,1.549c9.31-3.072,18.99-4.63,28.771-4.63
		c50.518,0,91.616,41.097,91.616,91.61C470,271.328,428.901,312.426,378.384,312.426z"/>
	<path d="M272.058,59.217c-12.196-5.349-25.394-5.521-37.16-0.484c-5.077,2.174-7.431,8.052-5.258,13.129
		c2.175,5.076,8.049,7.429,13.129,5.258c8.495-3.637,16.249-1.782,21.256,0.414c8.17,3.583,13.214,10.159,15.159,14.466
		c3.724,8.244,11.658,6.487,12.76,6.098c5.208-1.84,7.938-7.553,6.098-12.76C294.244,74.59,284.288,64.581,272.058,59.217z"/>
	<path d="M405.488,161.824c-4.711-2.884-10.866-1.403-13.75,3.307c-2.884,4.71-1.403,10.866,3.307,13.75
		c15.588,9.545,24.895,26.145,24.895,44.404c0,11.966-3.942,23.206-11.401,32.506c-3.456,4.309-2.765,10.602,1.544,14.058
		c1.846,1.48,4.056,2.199,6.251,2.199c2.929,0,5.832-1.28,7.807-3.743c10.189-12.703,15.8-28.691,15.8-45.019
		C439.939,198.009,427.06,175.033,405.488,161.824z"/>
</g>
<g>
</g>
<g>
</g>
<g>
</g>
<g>
</g>
<g>
</g>
<g>
</g>
<g>
</g>
<g>
</g>
<g>
</g>
<g>
</g>
<g>
</g>
<g>
</g>
<g>
</g>
<g>
</g>
<g>
</g>
</svg>
