<?xml version="1.0" encoding="iso-8859-1"?>
<!-- Generator: Adobe Illustrator 18.0.0, SVG Export Plug-In . SVG Version: 6.00 Build 0)  -->
<!DOCTYPE svg PUBLIC "-//W3C//DTD SVG 1.1//EN" "http://www.w3.org/Graphics/SVG/1.1/DTD/svg11.dtd">
<svg version="1.1" id="Capa_1" xmlns="http://www.w3.org/2000/svg" xmlns:xlink="http://www.w3.org/1999/xlink" x="0px" y="0px"
	 viewBox="0 0 490 490" style="enable-background:new 0 0 490 490;" xml:space="preserve">
<g>
	<g>
		<path d="M245.001,374.765c-2.977,0-5.798-1.326-7.698-3.617L111.758,219.733c-2.474-2.983-3.001-7.128-1.353-10.636
			c1.648-3.507,5.175-5.747,9.051-5.747h45.77L165.228,10c0-5.523,4.478-10,10-10h139.549c6.675,0,10,3.924,10,10l-0.002,193.351
			h45.77c3.876,0,7.402,2.24,9.051,5.747c1.648,3.508,1.121,7.652-1.353,10.636L252.699,371.147
			C250.799,373.439,247.978,374.765,245.001,374.765z M140.738,223.351l104.263,125.747l104.262-125.747h-34.488
			c-6.824,0-10-2.427-10-10L304.776,20H185.228l-0.002,193.351c0,5.523-4.478,10-10,10H140.738z"/>
	</g>
	<g>
		<path d="M270.612,118.79c-5.522,0-10-4.477-10-10V56.854c0-5.523,4.478-10,10-10c5.522,0,10,4.477,10,10v51.936
			C280.612,114.313,276.135,118.79,270.612,118.79z"/>
	</g>
	<g>
		<path d="M349.649,429.085H140.353c-5.522,0-10-4.477-10-10c0-5.523,4.478-10,10-10h209.297c5.522,0,10,4.477,10,10
			C359.649,424.608,355.172,429.085,349.649,429.085z"/>
	</g>
	<g>
		<path d="M349.649,490H140.353c-5.522,0-10-4.477-10-10c0-5.523,4.478-10,10-10h209.297c5.522,0,10,4.477,10,10
			C359.649,485.523,355.172,490,349.649,490z"/>
	</g>
	<g>
		<path d="M270.612,165.114c-6.627,0-12-5.372-12-12v-8.658c0-6.627,5.373-12,12-12c6.627,0,12,5.373,12,12v8.658
			C282.612,159.742,277.239,165.114,270.612,165.114z"/>
	</g>
</g>
<g>
</g>
<g>
</g>
<g>
</g>
<g>
</g>
<g>
</g>
<g>
</g>
<g>
</g>
<g>
</g>
<g>
</g>
<g>
</g>
<g>
</g>
<g>
</g>
<g>
</g>
<g>
</g>
<g>
</g>
</svg>
