<?xml version="1.0" encoding="iso-8859-1"?>
<!-- Generator: Adobe Illustrator 18.0.0, SVG Export Plug-In . SVG Version: 6.00 Build 0)  -->
<!DOCTYPE svg PUBLIC "-//W3C//DTD SVG 1.1//EN" "http://www.w3.org/Graphics/SVG/1.1/DTD/svg11.dtd">
<svg version="1.1" id="Capa_1" xmlns="http://www.w3.org/2000/svg" xmlns:xlink="http://www.w3.org/1999/xlink" x="0px" y="0px"
	 viewBox="0 0 490 490" style="enable-background:new 0 0 490 490;" xml:space="preserve">
<g>
	<path d="M480,125.682H376.375l31.128-62.525c3.073-6.176,0.549-13.701-5.626-16.775l-1.32-0.658
		c-1.751-0.871-3.625-1.313-5.57-1.313c-4.783,0-9.077,2.658-11.206,6.936l-37.008,74.336H10c-5.523,0-10,4.479-10,10V435.59
		c0,5.523,4.477,10,10,10h470c5.522,0,10-4.477,10-10V135.682C490,130.16,485.522,125.682,480,125.682z M20,145.682h121.651V425.59
		H20V145.682z M470,425.59H161.651V145.682h175.164l-53.193,106.85c-0.173,0.348-0.263,0.73-0.262,1.119l0.041,24.035
		c0.002,0.947,0.538,1.813,1.386,2.234c0.353,0.176,0.734,0.262,1.114,0.262c0.532,0,1.062-0.17,1.504-0.502l19.205-14.455
		c0.31-0.234,0.562-0.535,0.734-0.883l59.073-118.66H470V425.59z"/>
	<g>
		<path d="M80.825,252.424c-18.312,0-33.211,14.898-33.211,33.211c0,18.314,14.898,33.213,33.211,33.213
			c18.313,0,33.212-14.898,33.212-33.213C114.037,267.322,99.139,252.424,80.825,252.424z M80.825,298.848
			c-7.284,0-13.211-5.928-13.211-13.213c0-7.283,5.927-13.211,13.211-13.211c7.285,0,13.212,5.928,13.212,13.211
			C94.037,292.92,88.11,298.848,80.825,298.848z"/>
		<g>
			<path d="M57.614,209.445h46.423c5.523,0,10-4.479,10-10c0-5.523-4.477-10-10-10H57.614c-5.522,0-10,4.477-10,10
				C47.614,204.967,52.092,209.445,57.614,209.445z"/>
			<path d="M104.037,361.826H57.614c-5.522,0-10,4.478-10,10c0,5.523,4.478,10,10,10h46.423c5.523,0,10-4.477,10-10
				C114.037,366.305,109.56,361.826,104.037,361.826z"/>
		</g>
	</g>
	<g>
		<path d="M404.925,193.82h14.027v12.836c0,5.521,4.477,10,10,10c5.522,0,10-4.479,10-10V183.82c0-5.521-4.478-10-10-10h-24.027
			c-5.522,0-10,4.479-10,10C394.925,189.344,399.403,193.82,404.925,193.82z"/>
		<path d="M226.726,173.82H202.7c-5.523,0-10,4.479-10,10v22.836c0,5.521,4.477,10,10,10c5.521,0,10-4.479,10-10V193.82h14.025
			c5.523,0,10-4.477,10-10C236.726,178.299,232.249,173.82,226.726,173.82z"/>
		<path d="M428.952,354.617c-5.523,0-10,4.477-10,10v12.834h-14.027c-5.522,0-10,4.478-10,10c0,5.523,4.478,10,10,10h24.027
			c5.522,0,10-4.477,10-10v-22.834C438.952,359.094,434.474,354.617,428.952,354.617z"/>
		<path d="M226.726,377.451H212.7v-12.834c0-5.523-4.479-10-10-10c-5.523,0-10,4.477-10,10v22.834c0,5.523,4.477,10,10,10h24.025
			c5.523,0,10-4.477,10-10C236.726,381.93,232.249,377.451,226.726,377.451z"/>
	</g>
</g>
<g>
</g>
<g>
</g>
<g>
</g>
<g>
</g>
<g>
</g>
<g>
</g>
<g>
</g>
<g>
</g>
<g>
</g>
<g>
</g>
<g>
</g>
<g>
</g>
<g>
</g>
<g>
</g>
<g>
</g>
</svg>
