<?xml version="1.0" encoding="iso-8859-1"?>
<!-- Generator: Adobe Illustrator 18.0.0, SVG Export Plug-In . SVG Version: 6.00 Build 0)  -->
<!DOCTYPE svg PUBLIC "-//W3C//DTD SVG 1.1//EN" "http://www.w3.org/Graphics/SVG/1.1/DTD/svg11.dtd">
<svg version="1.1" id="Capa_1" xmlns="http://www.w3.org/2000/svg" xmlns:xlink="http://www.w3.org/1999/xlink" x="0px" y="0px"
	 viewBox="0 0 490 490" style="enable-background:new 0 0 490 490;" xml:space="preserve">
<g>
	<path d="M253.768,291.142c0,0-2.534-5.192-8.768-5.192c-6.233,0-8.739,5.175-8.749,5.192l-65.413,118.16
		c-2.645,4.777-0.929,10.815,3.807,13.535c1.319,0.758,32.309,18.992,32.309,57.163c0,5.522,4.478,10,10,10h56.093
		c5.522,0,10-4.478,10-10c0-38.171,30.99-56.405,32.273-57.143c4.787-2.695,6.504-8.749,3.843-13.556
		C319.162,409.302,253.781,291.166,253.768,291.142z M263.603,470h-37.206c-3.484-30.833-22.496-50.071-33.697-58.897L235,334.67
		v41.057c0,5.522,4.477,10,10,10c5.522,0,10-4.478,10-10V334.67l42.301,76.434C286.1,419.929,267.087,439.167,263.603,470z"/>
	<path d="M447.486,0h-41.857c-5.522,0-10,4.477-10,10v41.857c0,5.523,4.478,10,10,10h8.15
		c-12.705,70.071-67.543,125.091-137.85,137.846v-8.146c0-5.522-4.478-10-10-10H224.07c-5.522,0-10,4.478-10,10v8.146
		C143.753,186.947,88.928,131.956,76.22,61.857h8.152c5.522,0,10-4.477,10-10V10c0-5.523-4.478-10-10-10H42.514
		c-5.522,0-10,4.477-10,10v41.857c0,5.523,4.478,10,10,10h13.428c6.332,38.735,24.727,75.129,52.386,103.289
		c15.011,15.284,32.497,27.884,51.519,37.339H90.983c-3.091-4.229-8.073-6.988-13.712-6.988c-9.385,0-16.99,7.605-16.99,16.988
		c0,9.384,7.605,16.99,16.99,16.99c5.639,0,10.623-2.76,13.713-6.99H214.07v10.93c0,5.523,4.478,10,10,10h41.859
		c5.522,0,10-4.477,10-10v-10.93h123.086c3.091,4.23,8.074,6.99,13.715,6.99c9.383,0,16.988-7.607,16.988-16.99
		c0-9.383-7.605-16.988-16.988-16.988c-5.641,0-10.623,2.759-13.714,6.988h-68.865c19.063-9.477,36.585-22.108,51.617-37.435
		c27.604-28.145,45.965-64.506,52.289-103.193h13.429c5.522,0,10-4.477,10-10V10C457.486,4.477,453.009,0,447.486,0z M52.514,20
		h21.858v21.857H52.514V20z M255.93,223.415H234.07v-21.858h21.859V223.415z M437.486,41.857h-21.857V20h21.857V41.857z"/>
</g>
<g>
</g>
<g>
</g>
<g>
</g>
<g>
</g>
<g>
</g>
<g>
</g>
<g>
</g>
<g>
</g>
<g>
</g>
<g>
</g>
<g>
</g>
<g>
</g>
<g>
</g>
<g>
</g>
<g>
</g>
</svg>
