<?xml version="1.0" encoding="iso-8859-1"?>
<!-- Generator: Adobe Illustrator 18.0.0, SVG Export Plug-In . SVG Version: 6.00 Build 0)  -->
<!DOCTYPE svg PUBLIC "-//W3C//DTD SVG 1.1//EN" "http://www.w3.org/Graphics/SVG/1.1/DTD/svg11.dtd">
<svg version="1.1" id="Capa_1" xmlns="http://www.w3.org/2000/svg" xmlns:xlink="http://www.w3.org/1999/xlink" x="0px" y="0px"
	 viewBox="0 0 490 490" style="enable-background:new 0 0 490 490;" xml:space="preserve">
<g>
	<path d="M480,18.02H10c-5.523,0-10,4.477-10,10v335.563c0,5.523,4.477,10,10,10h175.376l-13.159,38.232H92.1
		c-5.522,0-10,4.477-10,10v40.165c0,5.523,4.478,10,10,10H397.9c5.522,0,10-4.477,10-10v-40.165c0-5.523-4.478-10-10-10h-80.115
		l-13.157-38.232H480c5.522,0,10-4.477,10-10V28.02C490,22.497,485.522,18.02,480,18.02z M387.9,451.98H102.1v-20.165H387.9V451.98z
		 M296.633,411.815H193.367l13.159-38.232h76.95L296.633,411.815z M470,353.583H20V38.02h450V353.583z"/>
	<g>
		<path d="M450.213,294.414H39.787c-5.522,0-10-4.477-10-10c0-5.523,4.477-10,10-10h410.426c5.522,0,10,4.477,10,10
			C460.213,289.937,455.735,294.414,450.213,294.414z"/>
	</g>
	<g>
		<path d="M257.075,323.397c0,6.667-5.404,12.074-12.074,12.074c-6.67,0-12.076-5.408-12.076-12.074
			c0-6.666,5.406-12.068,12.076-12.068C251.671,311.329,257.075,316.731,257.075,323.397z"/>
	</g>
	<g>
		<path d="M367.147,153.134l-25.402-25.403c-3.906-3.905-10.236-3.905-14.143,0c-3.906,3.905-3.906,10.237,0,14.143l8.332,8.332
			H154.064l8.332-8.332c3.906-3.905,3.906-10.237,0-14.142c-3.906-3.905-10.238-3.905-14.143,0l-25.4,25.403
			c-3.906,3.905-3.906,10.237,0,14.142l25.4,25.4c1.953,1.953,4.512,2.929,7.072,2.929c2.559,0,5.117-0.977,7.07-2.929
			c3.906-3.905,3.906-10.237,0-14.142l-8.33-8.329h181.865l-8.33,8.329c-3.906,3.905-3.906,10.236,0,14.142
			c1.951,1.953,4.512,2.929,7.07,2.929c2.559,0,5.119-0.976,7.07-2.929l25.404-25.4c1.875-1.875,2.93-4.419,2.93-7.071
			C370.076,157.554,369.022,155.01,367.147,153.134z"/>
	</g>
</g>
<g>
</g>
<g>
</g>
<g>
</g>
<g>
</g>
<g>
</g>
<g>
</g>
<g>
</g>
<g>
</g>
<g>
</g>
<g>
</g>
<g>
</g>
<g>
</g>
<g>
</g>
<g>
</g>
<g>
</g>
</svg>
