<?xml version="1.0" encoding="iso-8859-1"?>
<!-- Generator: Adobe Illustrator 18.0.0, SVG Export Plug-In . SVG Version: 6.00 Build 0)  -->
<!DOCTYPE svg PUBLIC "-//W3C//DTD SVG 1.1//EN" "http://www.w3.org/Graphics/SVG/1.1/DTD/svg11.dtd">
<svg version="1.1" id="Capa_1" xmlns="http://www.w3.org/2000/svg" xmlns:xlink="http://www.w3.org/1999/xlink" x="0px" y="0px"
	 viewBox="0 0 490 490" style="enable-background:new 0 0 490 490;" xml:space="preserve">
<path d="M408.444,344.121c-26.856,0-50.352,14.601-63.012,36.271l-105.756-69.705c8.625-16.743,13.5-35.722,13.5-55.817
	c0-20.087-4.871-39.057-13.492-55.794l115.648-76.221c13.313,14.157,32.191,23.023,53.111,23.023
	c40.218,0,72.937-32.72,72.937-72.938C481.382,32.721,448.662,0,408.444,0c-40.219,0-72.939,32.721-72.939,72.939
	c0,12.114,2.986,23.539,8.234,33.604L229.1,182.099c-22.304-30.014-58.019-49.498-98.202-49.498
	c-67.425,0-122.279,54.85-122.279,122.268c0,67.429,54.854,122.285,122.279,122.285c40.178,0,75.889-19.482,98.193-49.492
	l108.621,71.594c-1.436,5.701-2.207,11.664-2.207,17.805c0,40.219,32.721,72.94,72.939,72.94c40.218,0,72.937-32.721,72.937-72.94
	C481.382,376.842,448.662,344.121,408.444,344.121z M408.444,20c29.189,0,52.937,23.748,52.937,52.939
	c0,29.19-23.748,52.938-52.937,52.938c-29.19,0-52.939-23.748-52.939-52.938C355.505,43.748,379.254,20,408.444,20z
	 M130.897,357.154c-56.397,0-102.279-45.885-102.279-102.285c0-56.391,45.882-102.268,102.279-102.268
	c56.398,0,102.279,45.878,102.279,102.268C233.177,311.27,187.295,357.154,130.897,357.154z M408.444,470
	c-29.19,0-52.939-23.749-52.939-52.94c0-29.19,23.749-52.939,52.939-52.939c29.189,0,52.937,23.749,52.937,52.939
	C461.382,446.251,437.634,470,408.444,470z"/>
<g>
</g>
<g>
</g>
<g>
</g>
<g>
</g>
<g>
</g>
<g>
</g>
<g>
</g>
<g>
</g>
<g>
</g>
<g>
</g>
<g>
</g>
<g>
</g>
<g>
</g>
<g>
</g>
<g>
</g>
</svg>
