<?xml version="1.0" encoding="iso-8859-1"?>
<!-- Generator: Adobe Illustrator 18.0.0, SVG Export Plug-In . SVG Version: 6.00 Build 0)  -->
<!DOCTYPE svg PUBLIC "-//W3C//DTD SVG 1.1//EN" "http://www.w3.org/Graphics/SVG/1.1/DTD/svg11.dtd">
<svg version="1.1" id="Capa_1" xmlns="http://www.w3.org/2000/svg" xmlns:xlink="http://www.w3.org/1999/xlink" x="0px" y="0px"
	 viewBox="0 0 490 490" style="enable-background:new 0 0 490 490;" xml:space="preserve">
<g>
	<path d="M480,277.715h-38.756v-38.859c0-5.521-4.478-10-10-10H255v-23.91h74.56c5.523,0,10-4.477,10-10v-90.166
		c0-5.521-4.477-10-10-10H160.438c-5.522,0-10,4.479-10,10v90.166c0,5.523,4.478,10,10,10H235v23.91H58.756c-5.522,0-10,4.479-10,10
		v38.859H10c-5.523,0-10,4.477-10,10v97.506c0,5.521,4.477,10,10,10h97.51c5.523,0,10-4.479,10-10v-97.506c0-5.523-4.477-10-10-10
		H68.756v-28.859H235v28.859h-38.758c-5.523,0-10,4.477-10,10v97.506c0,5.521,4.477,10,10,10h97.514c5.522,0,10-4.479,10-10v-97.506
		c0-5.523-4.478-10-10-10H255v-28.859h166.244v28.859h-38.758c-5.522,0-10,4.477-10,10v97.506c0,5.521,4.478,10,10,10H480
		c5.522,0,10-4.479,10-10v-97.506C490,282.191,485.522,277.715,480,277.715z M170.438,114.779H319.56v70.166H170.438V114.779z
		 M97.51,375.221H20v-77.506h77.51V375.221z M283.756,375.221h-77.514v-77.506h77.514V375.221z M470,375.221h-77.514v-77.506H470
		V375.221z"/>
</g>
<g>
</g>
<g>
</g>
<g>
</g>
<g>
</g>
<g>
</g>
<g>
</g>
<g>
</g>
<g>
</g>
<g>
</g>
<g>
</g>
<g>
</g>
<g>
</g>
<g>
</g>
<g>
</g>
<g>
</g>
</svg>
