<?xml version="1.0" encoding="iso-8859-1"?>
<!-- Generator: Adobe Illustrator 18.0.0, SVG Export Plug-In . SVG Version: 6.00 Build 0)  -->
<!DOCTYPE svg PUBLIC "-//W3C//DTD SVG 1.1//EN" "http://www.w3.org/Graphics/SVG/1.1/DTD/svg11.dtd">
<svg version="1.1" id="Capa_1" xmlns="http://www.w3.org/2000/svg" xmlns:xlink="http://www.w3.org/1999/xlink" x="0px" y="0px"
	 viewBox="0 0 490 490" style="enable-background:new 0 0 490 490;" xml:space="preserve">
<g>
	<path d="M377.284,0H112.716c-5.523,0-10,4.477-10,10v470c0,5.523,4.477,10,10,10h264.568c5.522,0,10-4.477,10-10V10
		C387.284,4.477,382.807,0,377.284,0z M367.284,20v70.508H122.716V20H367.284z M367.284,110.508v271.303H122.716V110.508H367.284z
		 M122.716,470v-68.189h244.568V470H122.716z"/>
	<path d="M218.563,66.41h65.684c5.523,0,10-4.477,10-10c0-5.523-4.477-10-10-10h-65.684c-5.522,0-10,4.477-10,10
		C208.563,61.933,213.041,66.41,218.563,66.41z"/>
	<circle cx="251.405" cy="436.646" r="16.668"/>
	<path d="M160.62,251.966l26.094,26.094c4.411,4.411,9.682,4.39,13.934,0c3.744-3.866,3.848-10.087,0-13.934l-9.27-9.273h107.247
		l-9.273,9.273c-3.847,3.848-3.911,10.152,0,13.934c4.627,4.474,10.253,3.682,13.936,0l26.093-26.094
		c1.848-1.848,2.887-4.354,2.887-6.967c0-2.613-1.039-5.12-2.887-6.967l-26.093-26.092c-3.85-3.847-10.086-3.847-13.936,0.001
		c-3.847,3.848-3.847,10.086,0,13.934l9.273,9.273H191.376l9.271-9.273c3.848-3.848,3.848-10.086,0-13.934
		c-3.847-3.847-10.086-3.847-13.934-0.001l-26.094,26.092c-1.848,1.848-2.887,4.354-2.887,6.967
		C157.733,247.612,158.772,250.12,160.62,251.966z"/>
</g>
<g>
</g>
<g>
</g>
<g>
</g>
<g>
</g>
<g>
</g>
<g>
</g>
<g>
</g>
<g>
</g>
<g>
</g>
<g>
</g>
<g>
</g>
<g>
</g>
<g>
</g>
<g>
</g>
<g>
</g>
</svg>
