<?xml version="1.0" encoding="iso-8859-1"?>
<!-- Generator: Adobe Illustrator 18.0.0, SVG Export Plug-In . SVG Version: 6.00 Build 0)  -->
<!DOCTYPE svg PUBLIC "-//W3C//DTD SVG 1.1//EN" "http://www.w3.org/Graphics/SVG/1.1/DTD/svg11.dtd">
<svg version="1.1" id="Capa_1" xmlns="http://www.w3.org/2000/svg" xmlns:xlink="http://www.w3.org/1999/xlink" x="0px" y="0px"
	 viewBox="0 0 490 490" style="enable-background:new 0 0 490 490;" xml:space="preserve">
<g>
	<path d="M421.878,0H68.122c-5.523,0-10,4.477-10,10v470c0,5.523,4.477,10,10,10h353.756c5.523,0,10-4.477,10-10V10
		C431.878,4.477,427.401,0,421.878,0z M411.878,470H78.122V20h333.756V470z"/>
	<path d="M110.774,409.495h268.449c5.523,0,10-4.477,10-10V80.685c0-5.523-4.477-10-10-10H110.774c-5.521,0-10,4.477-10,10v318.81
		C100.774,405.018,105.253,409.495,110.774,409.495z M120.774,90.685h248.449v298.81H120.774V90.685z"/>
	<path d="M226.573,55.051h36.852c5.523,0,10-4.477,10-10c0-5.523-4.477-10-10-10h-36.852c-5.521,0-10,4.477-10,10
		C216.573,50.574,221.052,55.051,226.573,55.051z"/>
	<circle cx="244.999" cy="435.952" r="16.508"/>
	<path d="M322.247,206.925c-3.906-3.905-10.236-3.905-14.142,0c-3.904,3.905-3.904,10.237,0,14.143l9.023,9.022H172.87l9.023-9.023
		c3.904-3.905,3.904-10.237,0-14.142c-3.906-3.905-10.236-3.905-14.143,0.001l-26.092,26.093c-3.906,3.905-3.906,10.236,0,14.142
		l26.092,26.094c1.953,1.953,4.512,2.929,7.07,2.929c2.559,0,5.119-0.976,7.07-2.929c3.906-3.905,3.906-10.237,0.002-14.142
		l-9.021-9.023h144.254l-9.021,9.023c-3.904,3.905-3.904,10.237,0,14.142c1.953,1.953,4.512,2.929,7.072,2.929
		c2.559,0,5.119-0.977,7.07-2.929l26.094-26.094c3.904-3.905,3.904-10.237,0-14.142L322.247,206.925z"/>
</g>
<g>
</g>
<g>
</g>
<g>
</g>
<g>
</g>
<g>
</g>
<g>
</g>
<g>
</g>
<g>
</g>
<g>
</g>
<g>
</g>
<g>
</g>
<g>
</g>
<g>
</g>
<g>
</g>
<g>
</g>
</svg>
