<?xml version="1.0" encoding="iso-8859-1"?>
<!-- Generator: Adobe Illustrator 18.0.0, SVG Export Plug-In . SVG Version: 6.00 Build 0)  -->
<!DOCTYPE svg PUBLIC "-//W3C//DTD SVG 1.1//EN" "http://www.w3.org/Graphics/SVG/1.1/DTD/svg11.dtd">
<svg version="1.1" id="Capa_1" xmlns="http://www.w3.org/2000/svg" xmlns:xlink="http://www.w3.org/1999/xlink" x="0px" y="0px"
	 viewBox="0 0 490 490" style="enable-background:new 0 0 490 490;" xml:space="preserve">
<g>
	<g>
		<g>
			<path d="M314.799,490H175.195c-2.649,0-5.199-1.056-7.076-2.932c-1.875-1.875-2.926-4.417-2.926-7.071l0.002-193.435h-45.797
				c-3.873,0-7.401-2.236-9.048-5.749c-1.647-3.507-1.122-7.656,1.351-10.638l125.596-151.479c1.9-2.292,4.723-3.619,7.7-3.619
				c2.978,0,5.8,1.327,7.702,3.619l125.6,151.479c2.473,2.981,2.999,7.13,1.348,10.638c-1.645,3.512-5.171,5.749-9.047,5.749
				h-45.794l-0.002,193.435C324.804,485.522,320.324,490,314.799,490z M185.198,469.996H304.8l0.002-193.436
				c0-5.527,4.479-10.004,9.999-10.004h34.504L244.997,140.759L140.696,266.556h34.501c6.976,0.056,10.003,3.807,10.003,10.004
				L185.198,469.996z"/>
		</g>
	</g>
	<g>
		<g>
			<path d="M218.858,447.168c-5.64,0-10.212-4.57-10.212-10.206v-53.018c0-5.64,4.572-10.21,10.212-10.21
				c5.633,0,10.204,4.57,10.204,10.21v53.018C229.062,442.598,224.49,447.168,218.858,447.168z"/>
		</g>
	</g>
	<g>
		<path d="M349.692,80.538H140.307c-5.414,0-9.8-4.385-9.8-9.801c0-5.411,4.386-9.8,9.8-9.8h209.386c5.413,0,9.8,4.389,9.8,9.8
			C359.492,76.153,355.106,80.538,349.692,80.538z"/>
	</g>
	<g>
		<path d="M349.692,19.6H140.307c-5.414,0-9.8-4.389-9.8-9.8s4.386-9.8,9.8-9.8h209.386c5.413,0,9.8,4.389,9.8,9.8
			S355.106,19.6,349.692,19.6z"/>
	</g>
	<g>
		<g>
			<path d="M218.858,359.784c-6.766,0-12.251-5.484-12.251-12.25v-8.837c0-6.766,5.485-12.25,12.251-12.25
				c6.763,0,12.247,5.484,12.247,12.25v8.837C231.105,354.299,225.62,359.784,218.858,359.784z"/>
		</g>
	</g>
</g>
<g>
</g>
<g>
</g>
<g>
</g>
<g>
</g>
<g>
</g>
<g>
</g>
<g>
</g>
<g>
</g>
<g>
</g>
<g>
</g>
<g>
</g>
<g>
</g>
<g>
</g>
<g>
</g>
<g>
</g>
</svg>
