<?xml version="1.0" encoding="iso-8859-1"?>
<!-- Generator: Adobe Illustrator 18.0.0, SVG Export Plug-In . SVG Version: 6.00 Build 0)  -->
<!DOCTYPE svg PUBLIC "-//W3C//DTD SVG 1.1//EN" "http://www.w3.org/Graphics/SVG/1.1/DTD/svg11.dtd">
<svg version="1.1" id="Capa_1" xmlns="http://www.w3.org/2000/svg" xmlns:xlink="http://www.w3.org/1999/xlink" x="0px" y="0px"
	 viewBox="0 0 490 490" style="enable-background:new 0 0 490 490;" xml:space="preserve">
<g>
	<path d="M402.854,307.052c-4.71-2.888-10.866-1.404-13.75,3.305c-2.885,4.71-1.405,10.866,3.305,13.75
		c14.966,9.166,23.9,25.102,23.9,42.629c0,11.484-3.785,22.276-10.947,31.21c-3.455,4.309-2.972,10.881,1.547,14.057
		c5.061,3.558,10.31,3.225,14.057-1.547c9.768-12.441,15.344-27.867,15.344-43.72C436.31,342.192,423.803,319.881,402.854,307.052z"
		/>
	<path d="M378.386,250.905c-7.426,0-14.801,0.736-22.044,2.196c-1.287-18.527-7.146-36.392-17.139-52.081
		c-9.941-15.609-23.555-28.454-39.603-37.468v-26.174h31.524c0.009-0.002,0.014,0,0.02,0c5.523,0,10-4.478,10-10
		c0-2.666-1.043-5.088-2.743-6.881L252.624,19.403c-1.9-2.239-4.688-3.53-7.625-3.53c-2.936,0-5.726,1.291-7.625,3.53
		L151.25,120.909c-2.52,2.971-3.087,7.136-1.449,10.671c1.637,3.536,5.178,5.799,9.074,5.799h31.521v26.176
		c-16.047,9.014-29.658,21.857-39.598,37.465c-9.993,15.691-15.852,33.555-17.14,52.082c-7.244-1.46-14.62-2.196-22.048-2.196
		C50.068,250.905,0,300.975,0,362.518c0,61.542,50.068,111.609,111.611,111.609h266.774C439.93,474.127,490,424.06,490,362.518
		C490,300.975,439.93,250.905,378.386,250.905z M180.474,117.379l64.525-76.049l64.526,76.049h-19.925c-5.522,0-10,4.477-10,10
		v128.116h-69.204V127.379c0-5.523-4.478-10-10-10H180.474z M378.386,454.127H111.611C61.097,454.127,20,413.031,20,362.518
		c0-50.516,41.097-91.612,91.611-91.612c9.789,0,19.469,1.559,28.77,4.632c3.132,1.033,6.794,0.715,9.202-1.544
		c3.948-3.704,3.774-8.697,3.806-13.088c0.211-29.573,13.85-56.526,37.008-73.61v78.2c0,5.522,4.477,10,10,10h89.204
		c5.522,0,10-4.478,10-10v-78.204c23.161,17.084,37.104,44.037,37.012,73.614c-0.019,6.009,1.176,11.082,3.801,13.086
		c2.625,2.004,6.07,2.584,9.205,1.546c9.302-3.073,18.98-4.632,28.768-4.632c50.517,0,91.614,41.097,91.614,91.612
		C470,413.031,428.902,454.127,378.386,454.127z"/>
	<path d="M113.639,302.251c-23.792-2.567-43.268,11.915-50.214,27.538c-2.243,5.046,0.076,10.85,5.075,13.2
		c4.052,1.904,9.469,1.654,13.2-5.075c3.991-7.198,14.805-17.379,29.798-15.778c5.483,0.592,10.422-3.381,11.013-8.872
		C123.102,307.773,119.129,302.842,113.639,302.251z"/>
</g>
<g>
</g>
<g>
</g>
<g>
</g>
<g>
</g>
<g>
</g>
<g>
</g>
<g>
</g>
<g>
</g>
<g>
</g>
<g>
</g>
<g>
</g>
<g>
</g>
<g>
</g>
<g>
</g>
<g>
</g>
</svg>
