<?xml version="1.0" encoding="iso-8859-1"?>
<!-- Generator: Adobe Illustrator 18.0.0, SVG Export Plug-In . SVG Version: 6.00 Build 0)  -->
<!DOCTYPE svg PUBLIC "-//W3C//DTD SVG 1.1//EN" "http://www.w3.org/Graphics/SVG/1.1/DTD/svg11.dtd">
<svg version="1.1" id="Capa_1" xmlns="http://www.w3.org/2000/svg" xmlns:xlink="http://www.w3.org/1999/xlink" x="0px" y="0px"
	 viewBox="0 0 490 490" style="enable-background:new 0 0 490 490;" xml:space="preserve">
<g>
	<path d="M216.428,273.044h-15.033c-1.939,0-3.508,1.571-3.508,3.509v17.987c0,6.002-4.881,10.885-10.884,10.885H32.936
		c-6.001,0-10.885-4.883-10.885-10.885V195.46c0-6.002,4.884-10.885,10.885-10.885h154.067c6.003,0,10.884,4.883,10.884,10.885
		v17.952c0,1.938,1.569,3.508,3.508,3.508h15.033c1.938,0,3.509-1.57,3.509-3.508V195.46c0-18.16-14.773-32.934-32.934-32.934
		H32.936C14.777,162.526,0,177.299,0,195.46v99.081c0,18.16,14.777,32.934,32.936,32.934h154.067
		c18.16,0,32.934-14.773,32.934-32.934v-17.987C219.936,274.616,218.365,273.044,216.428,273.044z"/>
	<path d="M457.067,162.526H303.002c-18.16,0-32.935,14.773-32.935,32.934v17.952c0,1.938,1.57,3.508,3.508,3.508h15.032
		c1.938,0,3.509-1.57,3.509-3.508V195.46c0-6.002,4.884-10.885,10.887-10.885h154.066c6.003,0,10.884,4.883,10.884,10.885v99.081
		c0,6.002-4.881,10.885-10.884,10.885H303.002c-6.003,0-10.887-4.883-10.887-10.885v-17.987c0-1.938-1.57-3.509-3.509-3.509h-15.032
		c-1.938,0-3.508,1.571-3.508,3.509v17.987c0,18.16,14.775,32.934,32.935,32.934h154.066c18.16,0,32.933-14.773,32.933-32.934
		V195.46C490,177.299,475.228,162.526,457.067,162.526z"/>
	<path d="M130.859,244.982c0,6.079,4.945,11.024,11.025,11.024h206.235c6.078,0,11.023-4.945,11.023-11.024
		s-4.945-11.024-11.023-11.024H141.884C135.805,233.958,130.859,238.903,130.859,244.982z"/>
</g>
<g>
</g>
<g>
</g>
<g>
</g>
<g>
</g>
<g>
</g>
<g>
</g>
<g>
</g>
<g>
</g>
<g>
</g>
<g>
</g>
<g>
</g>
<g>
</g>
<g>
</g>
<g>
</g>
<g>
</g>
</svg>
