<?xml version="1.0" encoding="iso-8859-1"?>
<!-- Generator: Adobe Illustrator 18.0.0, SVG Export Plug-In . SVG Version: 6.00 Build 0)  -->
<!DOCTYPE svg PUBLIC "-//W3C//DTD SVG 1.1//EN" "http://www.w3.org/Graphics/SVG/1.1/DTD/svg11.dtd">
<svg version="1.1" id="Capa_1" xmlns="http://www.w3.org/2000/svg" xmlns:xlink="http://www.w3.org/1999/xlink" x="0px" y="0px"
	 viewBox="0 0 490 490" style="enable-background:new 0 0 490 490;" xml:space="preserve">
<g>
	<path d="M480,97.685H340.696V22.296c0-5.523-4.478-10-10-10H69.504c-5.523,0-10,4.477-10,10v75.389H10c-5.523,0-10,4.477-10,10
		v360.02c0,5.523,4.477,10,10,10h470c5.522,0,10-4.477,10-10v-360.02C490,102.161,485.522,97.685,480,97.685z M470,117.685v48.077
		H340.696v-48.077H470z M320.696,186.233L210.1,273.202v-33.271l110.597-86.968V186.233z M320.696,127.519L210.1,214.487v-33.27
		l110.597-86.97V127.519z M210.1,155.773v-33.271l110.597-86.969v33.271L210.1,155.773z M210.1,97.059V32.296h82.357L210.1,97.059z
		 M210.1,298.646l110.597-86.969v33.271L210.1,331.916V298.646z M79.504,32.296H190.1v299.62L79.504,244.948V32.296z M20,457.704
		v-340.02h39.504v132.121c0,3.067,1.407,5.965,3.818,7.861l130.596,102.695c1.814,1.427,3.997,2.14,6.182,2.14
		c2.184,0,4.368-0.714,6.182-2.14l130.597-102.695c2.411-1.897,3.818-4.794,3.818-7.861v-64.044H470v271.942H20z"/>
	<path d="M407.403,150.065h18c5.522,0,10-4.477,10-10c0-5.522-4.478-10-10-10h-18c-5.522,0-10,4.478-10,10
		C397.403,145.589,401.881,150.065,407.403,150.065z"/>
</g>
<g>
</g>
<g>
</g>
<g>
</g>
<g>
</g>
<g>
</g>
<g>
</g>
<g>
</g>
<g>
</g>
<g>
</g>
<g>
</g>
<g>
</g>
<g>
</g>
<g>
</g>
<g>
</g>
<g>
</g>
</svg>
