<?xml version="1.0" encoding="iso-8859-1"?>
<!-- Generator: Adobe Illustrator 18.0.0, SVG Export Plug-In . SVG Version: 6.00 Build 0)  -->
<!DOCTYPE svg PUBLIC "-//W3C//DTD SVG 1.1//EN" "http://www.w3.org/Graphics/SVG/1.1/DTD/svg11.dtd">
<svg version="1.1" id="Capa_1" xmlns="http://www.w3.org/2000/svg" xmlns:xlink="http://www.w3.org/1999/xlink" x="0px" y="0px"
	 viewBox="0 0 489.969 489.969" style="enable-background:new 0 0 489.969 489.969;" xml:space="preserve">
<g>
	<path d="M209.028,166.798H175.1v-33.926c0-5.522-4.478-10-10-10c-5.523,0-10,4.478-10,10v33.926h-33.928c-5.522,0-10,4.477-10,10
		c0,5.522,4.478,10,10,10H155.1v33.923c0,5.523,4.477,10,10,10c5.522,0,10-4.477,10-10v-33.923h33.928c5.522,0,10-4.478,10-10
		C219.028,171.275,214.55,166.798,209.028,166.798z"/>
	<path d="M165.1,65.02c-61.634,0-111.777,50.142-111.777,111.775S103.466,288.572,165.1,288.572s111.777-50.143,111.777-111.776
		S226.734,65.02,165.1,65.02z M165.1,268.572c-50.606,0-91.777-41.171-91.777-91.776S114.494,85.02,165.1,85.02
		c50.606,0,91.777,41.17,91.777,91.775S215.707,268.572,165.1,268.572z"/>
	<path d="M287.446,287.641c29.611-32.679,44.722-74.933,42.549-118.978c-2.173-44.045-21.369-84.606-54.052-114.213
		c-30.427-27.566-69.776-42.748-110.8-42.748c-46.549,0-91.158,19.774-122.392,54.249C13.143,98.632-1.967,140.886,0.206,184.93
		c2.173,44.044,21.368,84.607,54.05,114.216c30.424,27.564,69.771,42.744,110.794,42.744
		C211.599,341.89,256.211,322.117,287.446,287.641z M165.049,321.89c-36.049,0-70.628-13.341-97.366-37.566
		c-28.723-26.021-45.593-61.67-47.502-100.379c-1.909-38.708,11.37-75.844,37.392-104.565
		c27.449-30.299,66.656-47.677,107.569-47.677c36.05,0,70.631,13.343,97.372,37.569c28.724,26.021,45.595,61.668,47.504,100.377
		c1.909,38.709-11.37,75.844-37.395,104.563C245.173,304.512,205.963,321.89,165.049,321.89z"/>
	<path d="M465.648,349.246c-0.218-0.198-0.444-0.386-0.68-0.564l-123.85-93.723c-4.404-3.333-10.675-2.464-14.009,1.939
		c-3.332,4.404-2.464,10.676,1.94,14.009l123.482,93.444c21.816,20.076,23.398,54.152,3.458,76.165
		c-19.943,22.011-54.01,23.788-76.142,4.054L276.373,332.685c-3.749-4.053-10.076-4.303-14.132-0.552
		c-4.055,3.75-4.302,10.077-0.552,14.132l103.789,112.224c0.2,0.217,0.41,0.424,0.629,0.622
		c14.166,12.831,31.978,19.155,49.735,19.155c20.215-0.001,40.36-8.197,54.969-24.32
		C498.252,423.655,495.936,376.686,465.648,349.246z"/>
</g>
<g>
</g>
<g>
</g>
<g>
</g>
<g>
</g>
<g>
</g>
<g>
</g>
<g>
</g>
<g>
</g>
<g>
</g>
<g>
</g>
<g>
</g>
<g>
</g>
<g>
</g>
<g>
</g>
<g>
</g>
</svg>
